<svg xmlns="http://www.w3.org/2000/svg" version="1.1" viewBox="84.57142857142857 87.0912 311.2605042016807 165.984" style="max-height: 500px" width="311.2605042016807" height="165.984">
<path transform="translate(0,0)" fill="#FDFDFD" d="M0 0 C158.4 0 316.8 0 480 0 C480 110.88 480 221.76 480 336 C321.6 336 163.2 336 0 336 C0 225.12 0 114.24 0 0 Z"/>
<path transform="translate(204,90)" fill="#0F0F0F" d="M0 0 C2 2 2 2 2.625 5.625 C2.36321191 17.2184727 -7.02624028 29.42919607 -14 38 C-14.67546875 38.85078125 -15.3509375 39.7015625 -16.046875 40.578125 C-24.62747935 50.78716521 -36.36205489 58.66699025 -49 63 C-49.99 63 -50.98 63 -52 63 C-50.56916451 73.07232881 -48.86452489 81.3990634 -40.5859375 87.90625 C-36.27733503 90.87769998 -32.0736275 90.67775049 -27 90 C-19.72060626 87.69373181 -11.83456158 85.00342745 -6 80 C-4.5576872 77.14749068 -3.71492945 74.20142799 -2.875 71.125 C-1.15193845 65.08936156 0.43113711 59.56886289 5 55 C10.24050633 54.5443038 10.24050633 54.5443038 12.875 56.125 C14.52915243 58.88192071 14.28895333 60.82151336 14 64 C12.49609375 66.74609375 12.49609375 66.74609375 10.4375 69.4375 C9.70660156 70.40300781 8.97570312 71.36851562 8.22265625 72.36328125 C6.36505472 74.5669386 4.57250872 76.29128467 2.375 78.125 C-4.01912061 84.10848901 -6.57093589 95.59178561 -8 104 C-4.98027978 103.96851178 -2.81622022 103.93896524 0 103 C1.84542948 100.40693499 2.9005868 98.502258 4.0625 95.625 C4.72453694 94.15545758 5.39123871 92.68800812 6.0625 91.22265625 C6.38605469 90.50094238 6.70960938 89.77922852 7.04296875 89.03564453 C10.82728801 80.986243 16.41941841 73.8697129 22 67 C23.32 67.33 24.64 67.66 26 68 C24.59486663 71.18289879 22.70060396 73.84121198 20.62255859 76.62011719 C11.37396434 88.35985263 11.37396434 88.35985263 7 102 C8.09957031 101.67386719 9.19914062 101.34773438 10.33203125 101.01171875 C11.82547001 100.57014057 13.31896343 100.12874725 14.8125 99.6875 C15.59423584 99.45603271 16.37597168 99.22456543 17.18139648 98.98608398 C21.29342902 97.77441581 25.40770576 96.62031571 29.5625 95.5625 C49.28482056 90.18282564 49.28482056 90.18282564 64 76.875 C65.26295994 74.608713 66.17568546 72.51428138 67.0625 70.0625 C68 68 68 68 70.125 67.1875 C70.74375 67.125625 71.3625 67.06375 72 67 C71.71459115 74.84874339 68.91701656 80.22256533 63.24609375 85.69140625 C50.75138444 95.6819567 30.07245725 104 14 104 C29.12758633 121.15195919 71.86741546 121.22085832 93 123 C94.13953125 123.09764648 95.2790625 123.19529297 96.453125 123.29589844 C116.94443154 125.01702911 137.43414191 126.05717415 157.99813843 126.17523193 C159.94907547 126.18718792 161.89995929 126.20701394 163.85083008 126.22705078 C170.24885227 126.23304344 175.90262301 126.01004217 182 124 C182.33 123.67 182.66 123.34 183 123 C185.5 122.875 185.5 122.875 188 123 C189 124 189 124 189.0625 126.5625 C189.041875 127.366875 189.02125 128.17125 189 129 C188.29875 129.15855469 187.5975 129.31710938 186.875 129.48046875 C181.10334026 130.8998579 176.49849464 132.53392016 171.65625 136.01171875 C170 137 170 137 167 137 C167 135.68 167 134.36 167 133 C168.485 132.01 168.485 132.01 170 131 C169.12154419 130.98786972 169.12154419 130.98786972 168.2253418 130.97549438 C161.99298464 130.88777939 155.760887 130.78826031 149.52880859 130.68261719 C147.21928348 130.64490805 144.90971109 130.60996801 142.60009766 130.578125 C120.08207037 130.26414815 97.94338951 128.64967072 75.66162109 125.38232422 C73.04367611 125.00627378 70.42351539 124.65729737 67.80078125 124.31640625 C21.59189471 118.22000562 21.59189471 118.22000562 11.44921875 109.91015625 C8.86061016 107.89128926 7.21877959 107.36786052 4 107 C2.1184137 116.32509434 0.52296087 125.47850555 0 135 C-1.32 135.33 -2.64 135.66 -4 136 C-4.36901501 126.11859816 -3.71667939 117.58923141 -1 108 C-4.3 108 -7.6 108 -11 108 C-11.25523437 109.29292969 -11.51046875 110.58585937 -11.7734375 111.91796875 C-12.89752582 116.95274261 -14.60622599 121.57425272 -16.625 126.3125 C-16.97618896 127.1384668 -17.32737793 127.96443359 -17.68920898 128.81542969 C-22.7313551 140.32172169 -29.7815592 152.97691365 -41.7578125 158.3359375 C-46.70442514 159.80096215 -52.21600067 160.35048874 -56.96484375 158.046875 C-60.26330059 155.49843402 -61.77736308 152.89070237 -63 149 C-64.23301101 138.17558601 -63.11843349 130.21297606 -57 121 C-56.55527344 120.32453125 -56.11054688 119.6490625 -55.65234375 118.953125 C-49.7137323 111.12731633 -39.6867069 105.37653203 -30 104 C-24.33235922 103.69864223 -18.66973441 103.82240971 -13 104 C-12.87882812 103.43152344 -12.75765625 102.86304688 -12.6328125 102.27734375 C-11.58677946 97.45754536 -10.40795516 92.7267066 -9 88 C-10.051875 88.50660156 -10.051875 88.50660156 -11.125 89.0234375 C-19.88123826 93.13982125 -29.35259345 97.3347658 -39.13671875 94.34765625 C-46.32864175 91.15581233 -50.93178259 85.26827569 -54.25390625 78.265625 C-55.67083919 73.9628967 -55.83452215 69.5009975 -56 65 C-56.95519531 65.15855469 -57.91039062 65.31710938 -58.89453125 65.48046875 C-80.00572302 68.4660505 -97.64955647 63.00238977 -115.00390625 50.90625 C-115.66261719 50.2771875 -116.32132812 49.648125 -117 49 C-117 48.01 -117 47.02 -117 46 C-113.5270057 46.56840468 -110.84369636 47.42770155 -107.77734375 49.14453125 C-106.99786377 49.57266113 -106.21838379 50.00079102 -105.4152832 50.44189453 C-104.59761475 50.89419434 -103.77994629 51.34649414 -102.9375 51.8125 C-86.93588874 60.37033813 -73.97089214 62.56727031 -56 60 C-55.90203125 59.12859375 -55.8040625 58.2571875 -55.703125 57.359375 C-53.45819871 39.47737597 -47.101088 24.72288065 -33 13 C-22.92743682 5.32079046 -13.32036201 -1.95820706 0 0 Z"/>
<path transform="translate(182.3125,197.9375)" fill="#FBFBFB" d="M0 0 C1.25425781 0.00902344 2.50851563 0.01804688 3.80078125 0.02734375 C4.75339844 0.03894531 5.70601562 0.05054688 6.6875 0.0625 C1.52737901 17.3290587 -5.31665375 35.03144039 -20.3125 46.0625 C-24.35427518 47.40975839 -28.08629451 47.62803202 -32.3125 47.0625 C-35.34465675 44.86418636 -36.12904398 43.61286806 -37.3125 40.0625 C-38.18020319 28.9492245 -36.48552638 20.79311652 -29.33984375 12.13671875 C-21.18263283 3.79090179 -11.51663583 -0.10763211 0 0 Z"/>
<path transform="translate(202,94)" fill="#FAFAFA" d="M0 0 C-0.46238681 12.02205713 -7.74693576 21.86141431 -15 31 C-15.62777344 31.7940625 -16.25554687 32.588125 -16.90234375 33.40625 C-24.70305695 42.72243918 -34.76819795 49.42408065 -46 54 C-46.99 54 -47.98 54 -49 54 C-50.11452668 42.01883821 -44.22691126 30.5712608 -36.96484375 21.44140625 C-27.59540885 10.58475946 -15.20188345 -0.76487464 0 0 Z"/>
<path transform="translate(211,149)" fill="#E3E3E3" d="M0 0 C0.99 0 1.98 0 3 0 C2.65986985 5.44208234 -0.70296528 8.93668198 -4 13 C-5.20545511 9.38363467 -4.7015245 8.7128829 -3.125 5.375 C-2.75632813 4.57835937 -2.38765625 3.78171875 -2.0078125 2.9609375 C-1 1 -1 1 0 0 Z"/>
</svg>