<svg xmlns="http://www.w3.org/2000/svg" version="1.0" preserveAspectRatio="xMidYMid meet" viewBox="76 114.9 330 110.67">

<g transform="translate(0.000000,343.000000) scale(0.100000,-0.100000)" fill="#000000" stroke="none">
<path d="M760 2060 c0 -213 1 -220 20 -220 19 0 20 7 20 95 0 52 3 95 8 95 4 0 50 -43 102 -95 78 -78 100 -95 125 -95 28 0 25 5 -78 107 l-107 108 112 112 c107 107 111 113 83 113 -25 0 -48 -18 -130 -100 -55 -55 -103 -100 -107 -100 -5 0 -8 45 -8 100 0 93 -1 100 -20 100 -19 0 -20 -7 -20 -220z"/>
<path d="M1557 2067 c-48 -116 -87 -215 -87 -220 0 -4 10 -7 23 -7 19 0 31 23 96 186 41 102 77 187 81 189 3 2 39 -82 80 -186 71 -178 77 -189 101 -189 l26 0 -90 220 c-85 208 -91 220 -116 220 -25 0 -31 -12 -114 -213z"/>
<path d="M2270 2060 c0 -213 1 -220 20 -220 19 0 20 7 20 100 l0 100 130 0 130 0 0 -100 0 -100 25 0 25 0 0 221 0 220 -22 -3 c-22 -3 -23 -8 -26 -100 l-3 -98 -129 0 -130 0 0 100 c0 93 -1 100 -20 100 -19 0 -20 -7 -20 -220z"/>
<path d="M3010 2278 c0 -2 40 -100 88 -218 86 -210 89 -215 119 -218 l30 -3 87 213 c47 117 86 217 86 221 0 5 -10 7 -22 5 -19 -2 -34 -29 -90 -168 -37 -91 -72 -178 -78 -195 -11 -29 -15 -22 -90 165 -71 179 -80 195 -104 198 -14 2 -26 2 -26 0z"/>
<path d="M3817 2273 c-4 -3 -7 -102 -7 -220 l0 -213 125 0 c104 0 125 2 125 15 0 12 -18 15 -100 15 l-100 0 0 85 0 85 90 0 c83 0 90 1 90 20 0 19 -7 20 -90 20 l-90 0 0 80 0 80 100 0 c93 0 100 1 100 20 0 19 -7 20 -118 20 -65 0 -122 -3 -125 -7z"/>
<path d="M2393 1950 c-24 -10 -43 -24 -43 -30 0 -13 -1 -13 48 10 22 11 46 20 52 20 30 0 -16 -100 -79 -172 -40 -44 -117 -98 -142 -98 -11 0 -9 30 7 100 5 24 5 24 -10 6 -8 -10 -20 -43 -26 -72 l-11 -54 -68 0 c-58 0 -78 5 -150 40 -101 49 -103 30 -2 -22 64 -34 80 -38 146 -38 l74 0 11 -39 c14 -52 43 -87 84 -101 28 -9 44 -7 91 8 46 16 55 17 51 5 -4 -8 -9 -26 -12 -39 -5 -21 -12 -24 -50 -24 -53 0 -97 -17 -142 -55 -44 -37 -64 -78 -64 -133 0 -38 5 -51 28 -70 62 -54 152 19 208 170 20 52 28 64 49 66 24 3 25 2 16 -35 -11 -50 -11 -103 0 -103 5 0 12 26 16 58 10 87 12 89 88 58 115 -46 416 -86 646 -86 100 0 112 -2 101 -15 -17 -20 9 -21 36 0 10 8 29 15 42 15 13 0 22 6 22 16 0 13 -7 15 -37 9 -148 -28 -662 18 -788 71 -37 15 -54 34 -32 34 32 0 172 53 208 78 37 26 69 69 69 91 0 22 -16 10 -35 -25 -10 -19 -37 -46 -59 -59 -35 -20 -201 -75 -227 -75 -13 0 34 90 67 129 14 18 23 35 19 39 -11 11 -63 -56 -93 -120 -21 -44 -32 -57 -49 -57 -27 -1 -27 -6 -6 55 9 27 34 69 55 93 45 52 48 86 8 86 -21 0 -28 -8 -46 -59 -23 -66 -36 -78 -105 -101 -41 -14 -52 -14 -75 -3 -33 16 -60 53 -69 94 -5 29 -3 31 47 54 100 45 224 199 216 268 -4 35 -29 38 -85 12z m127 -287 c-1 -10 -39 -60 -40 -51 0 14 23 58 32 58 4 0 8 -3 8 -7z m-141 -285 c-42 -108 -90 -171 -140 -183 -36 -9 -59 16 -59 66 0 90 84 168 182 169 l38 0 -21 -52z"/>
<path d="M2950 1577 c-53 -27 -58 -111 -10 -137 28 -15 86 -12 100 5 11 13 7 14 -32 9 -34 -5 -48 -2 -61 11 -46 45 3 121 64 98 36 -14 48 0 13 16 -32 14 -43 14 -74 -2z"/>
<path d="M3184 1580 c-28 -11 -54 -48 -54 -76 0 -12 9 -33 21 -48 16 -21 29 -26 64 -26 35 0 48 5 64 26 27 34 27 67 -1 98 -26 29 -63 39 -94 26z m71 -35 c29 -28 31 -42 9 -73 -30 -44 -114 -18 -114 36 0 18 46 62 65 62 9 0 27 -11 40 -25z"/>
<path d="M3380 1510 c0 -47 4 -80 10 -80 6 0 10 14 10 30 0 28 3 30 34 30 48 0 55 18 9 22 -33 3 -38 6 -38 28 0 22 5 25 43 28 58 4 43 22 -19 22 l-49 0 0 -80z"/>
<path d="M3570 1510 c0 -47 4 -80 10 -80 6 0 10 14 10 30 0 28 3 30 35 30 19 0 35 5 35 10 0 6 -16 10 -35 10 -32 0 -35 2 -35 30 0 28 2 30 40 30 22 0 40 5 40 10 0 6 -22 10 -50 10 l-50 0 0 -80z"/>
<path d="M3757 1583 c-4 -3 -7 -39 -7 -80 l0 -73 60 0 c33 0 60 4 60 10 0 6 -23 10 -51 10 -47 0 -50 2 -47 23 2 18 10 23 46 25 53 4 45 22 -9 22 -36 0 -40 2 -37 23 2 18 10 23 46 25 23 2 42 7 42 13 0 10 -93 13 -103 2z"/>
<path d="M3950 1510 l0 -80 55 0 c30 0 55 5 55 10 0 6 -20 10 -45 10 -41 0 -45 2 -45 25 0 23 4 25 40 25 22 0 40 5 40 10 0 6 -18 10 -40 10 -36 0 -40 3 -40 25 0 23 4 25 45 25 25 0 45 5 45 10 0 6 -25 10 -55 10 l-55 0 0 -80z"/>
<path d="M760 1570 c0 -5 11 -10 25 -10 24 0 25 -2 25 -70 0 -40 4 -70 10 -70 6 0 10 30 10 70 0 68 1 70 25 70 14 0 25 5 25 10 0 6 -27 10 -60 10 -33 0 -60 -4 -60 -10z"/>
<path d="M970 1516 c0 -56 3 -67 22 -80 12 -9 32 -16 43 -16 11 0 31 7 43 16 19 13 22 24 22 80 0 36 -4 64 -10 64 -6 0 -10 -27 -10 -60 0 -50 -3 -61 -21 -71 -16 -8 -28 -8 -45 0 -21 9 -24 17 -24 71 0 33 -4 60 -10 60 -6 0 -10 -28 -10 -64z"/>
<path d="M1190 1500 c0 -47 4 -80 10 -80 6 0 10 11 10 25 0 36 42 34 68 -2 25 -34 40 -25 18 10 -15 22 -15 26 -1 37 18 15 20 61 3 78 -7 7 -34 12 -60 12 l-48 0 0 -80z m98 31 c4 -28 -12 -41 -50 -41 -25 0 -28 3 -28 36 0 35 1 35 38 32 30 -2 38 -7 40 -27z"/>
<path d="M1400 1500 c0 -47 4 -80 10 -80 6 0 10 11 10 24 0 13 7 29 16 37 14 11 20 7 49 -27 44 -51 57 -37 15 16 l-33 41 34 35 c48 50 14 43 -38 -8 l-43 -42 0 42 c0 23 -4 42 -10 42 -6 0 -10 -33 -10 -80z"/>
<path d="M1620 1500 c0 -64 3 -80 15 -80 12 0 15 16 15 80 0 64 -3 80 -15 80 -12 0 -15 -16 -15 -80z"/>
<path d="M1753 1574 c-7 -3 -13 -18 -13 -34 0 -23 7 -30 41 -44 29 -12 39 -21 37 -34 -4 -18 -38 -22 -72 -7 -14 6 -18 5 -14 -6 3 -8 17 -18 32 -24 35 -12 80 11 84 43 3 18 -5 26 -43 42 -55 24 -55 46 -1 44 23 -1 35 3 33 10 -4 12 -63 19 -84 10z"/>
<path d="M1930 1500 c0 -47 4 -80 10 -80 6 0 10 16 10 35 l0 35 50 0 50 0 0 -35 c0 -19 5 -35 10 -35 6 0 10 33 10 80 0 47 -4 80 -10 80 -5 0 -10 -16 -10 -36 l0 -35 -47 3 c-46 3 -48 4 -51 36 -6 64 -22 30 -22 -48z"/>
</g>
</svg>